#define clear_clip_width 25
#define clear_clip_height 17
static unsigned char clear_clip_bits[] = {
   0xff, 0xff, 0xff, 0x01, 0x01, 0xff, 0x01, 0x01, 0x03, 0xfe, 0x80, 0x01,
   0x07, 0x7c, 0xc0, 0x01, 0x0f, 0x38, 0xe0, 0x01, 0x0f, 0x10, 0xe0, 0x01,
   0x0f, 0x10, 0xe0, 0x01, 0x0f, 0x10, 0xe0, 0x01, 0x0f, 0x10, 0xe0, 0x01,
   0x0f, 0x10, 0xe0, 0x01, 0x0f, 0x10, 0xe0, 0x01, 0x0f, 0x10, 0xe0, 0x01,
   0x0f, 0x38, 0xe0, 0x01, 0x07, 0x7c, 0xc0, 0x01, 0x03, 0xfe, 0x80, 0x01,
   0x01, 0xff, 0x01, 0x01, 0xff, 0xff, 0xff, 0x01 };
