#define clear_in_width 14
#define clear_in_height 17
static unsigned char clear_in_bits[] = {
   0xff, 0x3f, 0x01, 0x3f, 0x03, 0x3e, 0x07, 0x3c, 0x0f, 0x38, 0x0f, 0x30,
   0x0f, 0x30, 0x0f, 0x30, 0x0f, 0x30, 0x0f, 0x30, 0x0f, 0x30, 0x0f, 0x30,
   0x0f, 0x38, 0x07, 0x3c, 0x03, 0x3e, 0x01, 0x3f, 0xff, 0x3f };
