#define clear_out_width 14
#define clear_out_height 17
static unsigned char clear_out_bits[] = {
   0xff, 0x3f, 0x3f, 0x20, 0x1f, 0x30, 0x0f, 0x38, 0x07, 0x3c, 0x03, 0x3c,
   0x03, 0x3c, 0x03, 0x3c, 0x03, 0x3c, 0x03, 0x3c, 0x03, 0x3c, 0x03, 0x3c,
   0x07, 0x3c, 0x0f, 0x38, 0x1f, 0x30, 0x3f, 0x20, 0xff, 0x3f };
