#define goto_prev_edit_width 12
#define goto_prev_edit_height 15
static unsigned char goto_prev_edit_bits[] = {
   0x03, 0x00, 0x03, 0x01, 0x83, 0x01, 0xc3, 0x01, 0xe3, 0x01, 0xf3, 0x0f,
   0xfb, 0x0f, 0xff, 0x0f, 0xfb, 0x0f, 0xf3, 0x0f, 0xe3, 0x01, 0xc3, 0x01,
   0x83, 0x01, 0x03, 0x01, 0x03, 0x00 };
