#define goto_mark_in_width 17
#define goto_mark_in_height 15
static unsigned char goto_mark_in_bits[] = {
   0x00, 0x00, 0x00, 0x1f, 0x20, 0x00, 0x3e, 0x30, 0x00, 0x7c, 0x38, 0x00,
   0xfc, 0x3c, 0x00, 0xfc, 0xfe, 0x01, 0xfc, 0xff, 0x01, 0xfc, 0xff, 0x01,
   0xfc, 0xff, 0x01, 0xfc, 0xfe, 0x01, 0xfc, 0x3c, 0x00, 0x7c, 0x38, 0x00,
   0x3e, 0x30, 0x00, 0x1f, 0x20, 0x00, 0x00, 0x00, 0x00 };
