#define goto_mark_out_width 17
#define goto_mark_out_height 15
static unsigned char goto_mark_out_bits[] = {
   0x00, 0x00, 0x00, 0x08, 0xf0, 0x01, 0x18, 0xf8, 0x00, 0x38, 0x7c, 0x00,
   0x78, 0x7e, 0x00, 0xff, 0x7e, 0x00, 0xff, 0x7f, 0x00, 0xff, 0x7f, 0x00,
   0xff, 0x7f, 0x00, 0xff, 0x7e, 0x00, 0x78, 0x7e, 0x00, 0x38, 0x7c, 0x00,
   0x18, 0xf8, 0x00, 0x08, 0xf0, 0x01, 0x00, 0x00, 0x00 };
