#define goto_next_edit_width 12
#define goto_next_edit_height 15
static unsigned char goto_next_edit_bits[] = {
   0x00, 0x0c, 0x08, 0x0c, 0x18, 0x0c, 0x38, 0x0c, 0x78, 0x0c, 0xff, 0x0c,
   0xff, 0x0d, 0xff, 0x0f, 0xff, 0x0d, 0xff, 0x0c, 0x78, 0x0c, 0x38, 0x0c,
   0x18, 0x0c, 0x08, 0x0c, 0x00, 0x0c };
