#define mark_out_width 11
#define mark_out_height 15
static unsigned char mark_out_bits[] = {
   0xf0, 0x07, 0xf8, 0x03, 0xfc, 0x01, 0xfe, 0x00, 0xff, 0x00, 0xff, 0x00,
   0xff, 0x00, 0xff, 0x00, 0xff, 0x00, 0xff, 0x00, 0xff, 0x00, 0xfe, 0x00,
   0xfc, 0x01, 0xf8, 0x03, 0xf0, 0x07 };
