#define mark_clip_width 23
#define mark_clip_height 15
static unsigned char mark_clip_bits[] = {
   0x7f, 0x00, 0x7f, 0xfe, 0x80, 0x3f, 0xfc, 0xc1, 0x1f, 0xf8, 0xe3, 0x0f,
   0xf8, 0xf7, 0x0f, 0xf8, 0xf7, 0x0f, 0xf8, 0xf7, 0x0f, 0xf8, 0xf7, 0x0f,
   0xf8, 0xf7, 0x0f, 0xf8, 0xf7, 0x0f, 0xf8, 0xf7, 0x0f, 0xf8, 0xe3, 0x0f,
   0xfc, 0xc1, 0x1f, 0xfe, 0x80, 0x3f, 0x7f, 0x00, 0x7f };
