#define mark_in_width 11
#define mark_in_height 15
static unsigned char mark_in_bits[] = {
   0x7f, 0x00, 0xfe, 0x00, 0xfc, 0x01, 0xf8, 0x03, 0xf8, 0x07, 0xf8, 0x07,
   0xf8, 0x07, 0xf8, 0x07, 0xf8, 0x07, 0xf8, 0x07, 0xf8, 0x07, 0xf8, 0x03,
   0xfc, 0x01, 0xfe, 0x00, 0x7f, 0x00 };
