#define pause_width 13
#define pause_height 15
static unsigned char pause_bits[] = {
   0x1f, 0x1f, 0x1f, 0x1f, 0x1f, 0x1f, 0x1f, 0x1f, 0x1f, 0x1f, 0x1f, 0x1f,
   0x1f, 0x1f, 0x1f, 0x1f, 0x1f, 0x1f, 0x1f, 0x1f, 0x1f, 0x1f, 0x1f, 0x1f,
   0x1f, 0x1f, 0x1f, 0x1f, 0x1f, 0x1f };
