#define play_fwd_width 15
#define play_fwd_height 15
static unsigned char play_fwd_bits[] = {
   0x10, 0x00, 0x30, 0x00, 0x70, 0x00, 0xf0, 0x00, 0xf0, 0x01, 0xf0, 0x03,
   0xf0, 0x07, 0xf0, 0x0f, 0xf0, 0x07, 0xf0, 0x03, 0xf0, 0x01, 0xf0, 0x00,
   0x70, 0x00, 0x30, 0x00, 0x10, 0x00 };
