#define step_rev_width 12
#define step_rev_height 15
static unsigned char step_rev_bits[] = {
   0x80, 0x0c, 0xc0, 0x0c, 0xe0, 0x0c, 0xf0, 0x0c, 0xf8, 0x0c, 0xfc, 0x0c,
   0xfe, 0x0c, 0xff, 0x0c, 0xfe, 0x0c, 0xfc, 0x0c, 0xf8, 0x0c, 0xf0, 0x0c,
   0xe0, 0x0c, 0xc0, 0x0c, 0x80, 0x0c };
