#define step_fwd_width 12
#define step_fwd_height 15
static unsigned char step_fwd_bits[] = {
   0x13, 0x00, 0x33, 0x00, 0x73, 0x00, 0xf3, 0x00, 0xf3, 0x01, 0xf3, 0x03,
   0xf3, 0x07, 0xf3, 0x0f, 0xf3, 0x07, 0xf3, 0x03, 0xf3, 0x01, 0xf3, 0x00,
   0x73, 0x00, 0x33, 0x00, 0x13, 0x00 };
